<?xml version="1.0" encoding="utf-8"?>
<!-- Generator: Adobe Illustrator 19.0.0, SVG Export Plug-In . SVG Version: 6.00 Build 0)  -->
<svg version="1.1" id="Capa_1" xmlns="http://www.w3.org/2000/svg" xmlns:xlink="http://www.w3.org/1999/xlink" x="0px" y="0px"
	 viewBox="62 61.1 720.8 720.8" style="enable-background:new 62 61.1 720.8 720.8;" xml:space="preserve">
<style type="text/css">
	.st0{display:none;}
	.st1{display:inline;fill:#606060;}
	.st2{fill:#5CCFEE;}
</style>
<g id="m" class="st0">
	<rect x="965.5" y="263.4" class="st1" width="624.5" height="699.6"/>
</g>
<g>
	<path class="st2" d="M477.5,519.3c-6.1,6.1-9.9,14.5-9.9,23.8c0,18.6,15.1,33.7,33.6,33.7h246.5c-58,121.3-181.9,205.1-325.3,205.1
		c-91.3,0-174.8-34-238.3-90H339c18.6,0,33.7-15.1,33.7-33.7c0-18.6-15.1-33.6-33.7-33.6H124.6C85.1,566.7,62,496.8,62,421.5
		c0-3.4,0-6.8,0.1-10.2h103.3v30c0,34.6,14,66,36.7,88.7c22.7,22.7,54.1,36.7,88.7,36.7c57.2,0,105.5-38.3,120.6-90.8h-72
		c-17.8,0-32.3-14.5-32.3-32.3c0-8.9,3.6-17,9.5-22.8c5.8-5.8,13.9-9.5,22.8-9.5h191.7c18.6,0,33.6-15.1,33.6-33.7
		s-15-33.6-33.6-33.6H409.9c-16.5-49.9-63.6-85.9-119.1-85.9s-102.5,36-119.1,85.9H70.4C105.8,182.2,250,61.1,422.4,61.1
		c107.7,0,204.4,47.3,270.5,122.2H502.3c-9.3,0-17.7,3.8-23.8,9.9c-6.1,6.1-9.9,14.5-9.9,23.8c0,18.6,15.1,33.6,33.7,33.6h237.5
		c27.5,50.9,43,109,43,170.9c0,30.4-3.8,59.8-10.8,88H501.3C492,509.5,483.5,513.2,477.5,519.3z"/>
</g>
</svg>
